<svg xmlns="http://www.w3.org/2000/svg" xmlns:xlink="http://www.w3.org/1999/xlink" width="409" zoomAndPan="magnify" viewBox="0 0 306.75 241.499998" height="322" preserveAspectRatio="xMidYMid meet" version="1.2"><defs/><g id="d8611f4aae"><g style="fill:#cdc9c9;fill-opacity:1;"><g transform="translate(71.60714, 78.516665)"><path style="stroke:none" d="M 32.375 -10.1875 C 32.375 -6.707031 31.0625 -4.023438 28.4375 -2.140625 C 25.8125 -0.253906 22.140625 0.6875 17.421875 0.6875 C 12.828125 0.6875 9.285156 -0.0664062 6.796875 -1.578125 C 4.304688 -3.085938 2.6875 -5.445312 1.9375 -8.65625 L 7.359375 -9.71875 C 7.878906 -7.738281 8.957031 -6.285156 10.59375 -5.359375 C 12.226562 -4.441406 14.503906 -3.984375 17.421875 -3.984375 C 20.523438 -3.984375 22.796875 -4.457031 24.234375 -5.40625 C 25.679688 -6.363281 26.40625 -7.800781 26.40625 -9.71875 C 26.40625 -11.164062 25.90625 -12.34375 24.90625 -13.25 C 23.90625 -14.164062 22.296875 -14.914062 20.078125 -15.5 L 15.671875 -16.671875 C 12.148438 -17.578125 9.644531 -18.46875 8.15625 -19.34375 C 6.675781 -20.21875 5.515625 -21.28125 4.671875 -22.53125 C 3.828125 -23.78125 3.40625 -25.3125 3.40625 -27.125 C 3.40625 -30.488281 4.601562 -33.050781 7 -34.8125 C 9.394531 -36.570312 12.890625 -37.453125 17.484375 -37.453125 C 21.546875 -37.453125 24.773438 -36.734375 27.171875 -35.296875 C 29.578125 -33.867188 31.097656 -31.578125 31.734375 -28.421875 L 26.203125 -27.734375 C 25.867188 -29.378906 24.957031 -30.632812 23.46875 -31.5 C 21.976562 -32.375 19.984375 -32.8125 17.484375 -32.8125 C 14.710938 -32.8125 12.664062 -32.390625 11.34375 -31.546875 C 10.03125 -30.710938 9.375 -29.441406 9.375 -27.734375 C 9.375 -26.691406 9.644531 -25.828125 10.1875 -25.140625 C 10.738281 -24.460938 11.546875 -23.882812 12.609375 -23.40625 C 13.679688 -22.9375 15.929688 -22.28125 19.359375 -21.4375 C 22.609375 -20.613281 24.945312 -19.851562 26.375 -19.15625 C 27.8125 -18.46875 28.941406 -17.703125 29.765625 -16.859375 C 30.597656 -16.023438 31.238281 -15.054688 31.6875 -13.953125 C 32.144531 -12.847656 32.375 -11.59375 32.375 -10.1875 Z M 32.375 -10.1875 "/></g></g><g style="fill:#cdc9c9;fill-opacity:1;"><g transform="translate(106.505245, 78.516665)"><path style="stroke:none" d="M 4.671875 -44.71875 L 4.671875 -50.578125 L 10.796875 -50.578125 L 10.796875 -44.71875 Z M 4.671875 0 L 4.671875 -36.875 L 10.796875 -36.875 L 10.796875 0 Z M 4.671875 0 "/></g></g><g style="fill:#cdc9c9;fill-opacity:1;"><g transform="translate(122.011727, 78.516665)"><path style="stroke:none" d="M 28.109375 0 L 28.109375 -23.375 C 28.109375 -25.8125 27.867188 -27.695312 27.390625 -29.03125 C 26.921875 -30.375 26.160156 -31.335938 25.109375 -31.921875 C 24.066406 -32.515625 22.535156 -32.8125 20.515625 -32.8125 C 17.566406 -32.8125 15.238281 -31.800781 13.53125 -29.78125 C 11.820312 -27.757812 10.96875 -24.957031 10.96875 -21.375 L 10.96875 0 L 4.84375 0 L 4.84375 -29 C 4.84375 -33.289062 4.773438 -35.914062 4.640625 -36.875 L 10.421875 -36.875 C 10.453125 -36.757812 10.476562 -36.453125 10.5 -35.953125 C 10.519531 -35.453125 10.546875 -34.878906 10.578125 -34.234375 C 10.617188 -33.585938 10.660156 -32.363281 10.703125 -30.5625 L 10.796875 -30.5625 C 12.210938 -33.113281 13.84375 -34.914062 15.6875 -35.96875 C 17.539062 -37.03125 19.84375 -37.5625 22.59375 -37.5625 C 26.632812 -37.5625 29.59375 -36.554688 31.46875 -34.546875 C 33.34375 -32.535156 34.28125 -29.210938 34.28125 -24.578125 L 34.28125 0 Z M 28.109375 0 "/></g></g><g style="fill:#cdc9c9;fill-opacity:1;"><g transform="translate(160.829054, 78.516665)"><path style="stroke:none" d="M 9.375 -18.609375 C 9.375 -13.703125 10.144531 -10.066406 11.6875 -7.703125 C 13.226562 -5.335938 15.554688 -4.15625 18.671875 -4.15625 C 20.859375 -4.15625 22.679688 -4.742188 24.140625 -5.921875 C 25.609375 -7.109375 26.515625 -8.929688 26.859375 -11.390625 L 33.0625 -10.96875 C 32.582031 -7.425781 31.066406 -4.597656 28.515625 -2.484375 C 25.972656 -0.367188 22.75 0.6875 18.84375 0.6875 C 13.6875 0.6875 9.75 -0.941406 7.03125 -4.203125 C 4.320312 -7.460938 2.96875 -12.21875 2.96875 -18.46875 C 2.96875 -24.675781 4.328125 -29.410156 7.046875 -32.671875 C 9.773438 -35.929688 13.6875 -37.5625 18.78125 -37.5625 C 22.550781 -37.5625 25.679688 -36.582031 28.171875 -34.625 C 30.660156 -32.664062 32.222656 -29.972656 32.859375 -26.546875 L 26.546875 -26.078125 C 26.234375 -28.117188 25.425781 -29.738281 24.125 -30.9375 C 22.832031 -32.144531 20.992188 -32.75 18.609375 -32.75 C 15.359375 -32.75 13.003906 -31.671875 11.546875 -29.515625 C 10.097656 -27.359375 9.375 -23.722656 9.375 -18.609375 Z M 9.375 -18.609375 "/></g></g><g style="fill:#cdc9c9;fill-opacity:1;"><g transform="translate(195.727159, 78.516665)"><path style="stroke:none" d="M 9.40625 -17.140625 C 9.40625 -12.910156 10.28125 -9.648438 12.03125 -7.359375 C 13.78125 -5.066406 16.335938 -3.921875 19.703125 -3.921875 C 22.359375 -3.921875 24.484375 -4.453125 26.078125 -5.515625 C 27.679688 -6.585938 28.769531 -7.941406 29.34375 -9.578125 L 34.734375 -8.046875 C 32.523438 -2.222656 27.515625 0.6875 19.703125 0.6875 C 14.242188 0.6875 10.085938 -0.9375 7.234375 -4.1875 C 4.390625 -7.4375 2.96875 -12.265625 2.96875 -18.671875 C 2.96875 -24.765625 4.390625 -29.4375 7.234375 -32.6875 C 10.085938 -35.9375 14.160156 -37.5625 19.453125 -37.5625 C 30.296875 -37.5625 35.71875 -31.023438 35.71875 -17.953125 L 35.71875 -17.140625 Z M 29.375 -21.84375 C 29.03125 -25.726562 28.039062 -28.5625 26.40625 -30.34375 C 24.769531 -32.132812 22.421875 -33.03125 19.359375 -33.03125 C 16.378906 -33.03125 14.019531 -32.035156 12.28125 -30.046875 C 10.539062 -28.054688 9.601562 -25.320312 9.46875 -21.84375 Z M 29.375 -21.84375 "/></g></g><g style="fill:#cdc9c9;fill-opacity:1;"><g transform="translate(40.067203, 182.132968)"><path style="stroke:none" d="M 28.671875 -80.890625 C 36.222656 -80.890625 42.242188 -78.890625 46.734375 -74.890625 C 51.222656 -70.890625 53.46875 -65.414062 53.46875 -58.46875 C 53.46875 -54.15625 52.410156 -49.769531 50.296875 -45.3125 C 47.960938 -40.476562 45.625 -36.585938 43.28125 -33.640625 C 40.9375 -30.703125 39.007812 -28.328125 37.5 -26.515625 C 35.988281 -24.703125 34.25 -22.753906 32.28125 -20.671875 C 30.320312 -18.597656 28.644531 -16.84375 27.25 -15.40625 C 25.851562 -13.96875 24.226562 -12.320312 22.375 -10.46875 C 20.519531 -8.625 19.140625 -7.25 18.234375 -6.34375 L 44.296875 -6.34375 C 47.546875 -6.34375 50.054688 -7.019531 51.828125 -8.375 C 53.609375 -9.738281 55.519531 -12.269531 57.5625 -15.96875 L 58.6875 -15.96875 L 53.25 0 L 6.796875 0 L 6.796875 -1.140625 C 14.804688 -8.535156 22.773438 -17.296875 30.703125 -27.421875 C 34.859375 -32.785156 38.273438 -38.203125 40.953125 -43.671875 C 43.640625 -49.148438 44.984375 -53.929688 44.984375 -58.015625 C 44.984375 -64.128906 43.546875 -68.90625 40.671875 -72.34375 C 37.804688 -75.78125 33.914062 -77.5 29 -77.5 C 23.488281 -77.5 19.164062 -76.023438 16.03125 -73.078125 C 12.894531 -70.128906 11.40625 -66.015625 11.5625 -60.734375 L 10.421875 -60.609375 L 8.390625 -73.53125 C 11.328125 -76.476562 15.59375 -78.628906 21.1875 -79.984375 C 23.75 -80.585938 26.242188 -80.890625 28.671875 -80.890625 Z M 28.671875 -80.890625 "/></g></g><g style="fill:#cdc9c9;fill-opacity:1;"><g transform="translate(102.722513, 182.132968)"><path style="stroke:none" d="M 14.265625 -69.84375 C 19.023438 -77.207031 25.519531 -80.890625 33.75 -80.890625 C 41.988281 -80.890625 48.488281 -77.207031 53.25 -69.84375 C 58.007812 -62.476562 60.390625 -52.410156 60.390625 -39.640625 C 60.390625 -26.878906 58.007812 -16.816406 53.25 -9.453125 C 48.488281 -2.085938 41.988281 1.59375 33.75 1.59375 C 25.519531 1.59375 19.023438 -2.085938 14.265625 -9.453125 C 9.515625 -16.816406 7.140625 -26.878906 7.140625 -39.640625 C 7.140625 -52.410156 9.515625 -62.476562 14.265625 -69.84375 Z M 47.46875 -67.359375 C 44.144531 -74.117188 39.570312 -77.5 33.75 -77.5 C 27.9375 -77.5 23.367188 -74.117188 20.046875 -67.359375 C 16.722656 -60.597656 15.0625 -51.363281 15.0625 -39.65625 C 15.0625 -27.945312 16.722656 -18.710938 20.046875 -11.953125 C 23.367188 -5.191406 27.9375 -1.8125 33.75 -1.8125 C 39.570312 -1.8125 44.144531 -5.191406 47.46875 -11.953125 C 50.789062 -18.710938 52.453125 -27.945312 52.453125 -39.65625 C 52.453125 -51.363281 50.789062 -60.597656 47.46875 -67.359375 Z M 47.46875 -67.359375 "/></g></g><g style="fill:#cdc9c9;fill-opacity:1;"><g transform="translate(170.249756, 182.132968)"><path style="stroke:none" d="M 29.796875 -1.140625 L 32.171875 -1.140625 L 32.171875 0 L 7.59375 0 L 7.703125 -1.140625 L 10.078125 -1.140625 C 11.742188 -1.140625 13.195312 -1.742188 14.4375 -2.953125 C 15.6875 -4.160156 16.3125 -5.59375 16.3125 -7.25 L 16.3125 -66.953125 C 16.3125 -70.660156 14.578125 -72.515625 11.109375 -72.515625 L 6.796875 -72.515625 L 6.796875 -73.640625 C 10.347656 -74.097656 13.332031 -74.816406 15.75 -75.796875 C 18.164062 -76.773438 20.394531 -78.472656 22.4375 -80.890625 L 23.5625 -80.890625 L 23.5625 -7.25 C 23.5625 -5.507812 24.164062 -4.054688 25.375 -2.890625 C 26.582031 -1.722656 28.054688 -1.140625 29.796875 -1.140625 Z M 29.796875 -1.140625 "/></g></g><g style="fill:#cdc9c9;fill-opacity:1;"><g transform="translate(209.225216, 182.132968)"><path style="stroke:none" d="M 13.59375 -73.078125 C 11.40625 -73.078125 9.664062 -72.53125 8.375 -71.4375 C 7.09375 -70.34375 6 -68.625 5.09375 -66.28125 L 3.96875 -66.28125 L 7.140625 -79.078125 L 52.453125 -79.078125 L 40.21875 -46.453125 C 37.957031 -40.335938 35.179688 -32.425781 31.890625 -22.71875 C 28.609375 -13.007812 26.320312 -5.4375 25.03125 0 C 25.03125 0 22.390625 0 17.109375 0 C 25.640625 -21.445312 31.796875 -37.082031 35.578125 -46.90625 L 45.546875 -73.078125 Z M 13.59375 -73.078125 "/></g></g></g></svg>