<svg xmlns="http://www.w3.org/2000/svg" xmlns:xlink="http://www.w3.org/1999/xlink" width="432" zoomAndPan="magnify" viewBox="0 0 324 322.499991" height="430" preserveAspectRatio="xMidYMid meet" version="1.2"><defs><clipPath id="6f3eb4f503"><path d="M 0.546875 0 L 323.453125 0 L 323.453125 321.859375 L 0.546875 321.859375 Z M 0.546875 0 "/></clipPath></defs><g id="bad92d660f"><path style=" stroke:none;fill-rule:nonzero;fill:#bf987e;fill-opacity:1;" d="M 261.070312 245.101562 L 258.636719 247.925781 L 256.070312 250.625 C 255.207031 251.523438 254.382812 252.453125 253.460938 253.289062 C 251.652344 254.992188 249.917969 256.773438 248.003906 258.359375 L 248.015625 258.371094 C 241.515625 264.0625 234.46875 269.109375 227.011719 273.4375 C 219.492188 277.773438 211.554688 281.367188 203.347656 284.148438 L 203.339844 284.128906 C 194.753906 287.003906 185.871094 289.019531 176.859375 290.015625 L 176.855469 290.007812 C 176.691406 290.035156 176.527344 290.042969 176.363281 290.066406 C 175.714844 290.136719 175.066406 290.214844 174.414062 290.273438 C 173.996094 290.304688 173.578125 290.335938 173.15625 290.367188 L 169.453125 290.652344 C 166.976562 290.789062 164.492188 290.792969 162.015625 290.878906 C 159.535156 290.792969 157.050781 290.789062 154.574219 290.65625 L 150.871094 290.371094 C 150.453125 290.339844 150.039062 290.308594 149.625 290.273438 C 148.945312 290.214844 148.269531 290.136719 147.59375 290.0625 C 147.453125 290.042969 147.3125 290.035156 147.171875 290.015625 L 147.167969 290.015625 C 138.15625 289.027344 129.277344 287.011719 120.6875 284.140625 L 120.679688 284.15625 C 112.453125 281.375 104.503906 277.773438 96.96875 273.425781 C 89.527344 269.105469 82.496094 264.066406 76.007812 258.390625 L 76.019531 258.378906 C 74.105469 256.789062 72.367188 255.011719 70.558594 253.308594 C 69.640625 252.472656 68.808594 251.546875 67.953125 250.648438 L 65.382812 247.945312 L 62.949219 245.121094 C 62.148438 244.167969 61.292969 243.269531 60.550781 242.265625 C 59.46875 240.84375 58.328125 239.460938 57.257812 238.027344 C 57.109375 237.832031 56.96875 237.628906 56.820312 237.429688 C 56.558594 237.0625 56.292969 236.703125 56.042969 236.328125 L 56.03125 236.339844 C 50.886719 229.15625 46.484375 221.453125 42.863281 213.402344 C 39.390625 205.617188 36.664062 197.503906 34.738281 189.199219 L 34.746094 189.199219 C 32.625 179.941406 31.507812 170.453125 31.386719 160.925781 C 31.507812 151.40625 32.625 141.921875 34.746094 132.671875 L 34.734375 132.671875 C 36.664062 124.355469 39.394531 116.234375 42.871094 108.441406 C 46.488281 100.40625 50.886719 92.714844 56.015625 85.546875 L 56.027344 85.554688 C 56.289062 85.164062 56.566406 84.78125 56.84375 84.40625 C 56.96875 84.230469 57.09375 84.054688 57.21875 83.882812 C 58.296875 82.4375 59.445312 81.050781 60.535156 79.617188 C 61.273438 78.617188 62.128906 77.710938 62.929688 76.761719 L 65.363281 73.9375 L 67.929688 71.234375 C 68.792969 70.335938 69.617188 69.410156 70.535156 68.574219 C 72.347656 66.871094 74.082031 65.089844 75.996094 63.503906 L 75.984375 63.492188 C 82.488281 57.800781 89.53125 52.753906 96.988281 48.425781 C 104.511719 44.089844 112.445312 40.496094 120.652344 37.714844 L 120.660156 37.730469 C 129.246094 34.859375 138.128906 32.839844 147.140625 31.847656 L 147.144531 31.851562 C 147.308594 31.828125 147.472656 31.816406 147.636719 31.792969 C 148.285156 31.726562 148.933594 31.648438 149.582031 31.589844 C 150.003906 31.558594 150.421875 31.523438 150.84375 31.492188 L 154.546875 31.207031 C 157.023438 31.070312 159.507812 31.070312 161.984375 30.980469 C 164.464844 31.066406 166.949219 31.074219 169.425781 31.207031 L 173.128906 31.492188 C 173.546875 31.523438 173.960938 31.554688 174.378906 31.585938 C 175.054688 31.648438 175.726562 31.726562 176.398438 31.796875 C 176.542969 31.820312 176.6875 31.828125 176.828125 31.847656 L 176.832031 31.84375 C 185.84375 32.839844 194.722656 34.847656 203.3125 37.722656 L 203.320312 37.703125 C 211.546875 40.488281 219.496094 44.089844 227.03125 48.4375 C 234.472656 52.757812 241.503906 57.796875 247.992188 63.472656 L 247.980469 63.484375 C 249.894531 65.070312 251.632812 66.851562 253.441406 68.554688 C 254.359375 69.390625 255.191406 70.316406 256.046875 71.214844 L 258.617188 73.917969 L 261.050781 76.742188 C 261.847656 77.691406 262.707031 78.59375 263.449219 79.59375 C 264.53125 81.019531 265.671875 82.398438 266.742188 83.832031 C 266.890625 84.03125 267.03125 84.234375 267.179688 84.433594 C 267.441406 84.796875 267.707031 85.160156 267.957031 85.53125 L 267.96875 85.523438 C 273.113281 92.703125 277.515625 100.410156 281.136719 108.460938 C 284.609375 116.242188 287.335938 124.355469 289.261719 132.664062 L 289.253906 132.667969 C 291.375 141.921875 292.492188 151.410156 292.613281 160.933594 C 292.492188 170.457031 291.375 179.9375 289.253906 189.191406 L 289.265625 189.191406 C 287.335938 197.507812 284.609375 205.625 281.132812 213.417969 C 277.511719 221.453125 273.117188 229.144531 267.984375 236.316406 L 267.972656 236.304688 C 267.707031 236.699219 267.429688 237.082031 267.152344 237.460938 C 267.03125 237.632812 266.90625 237.808594 266.78125 237.980469 C 265.703125 239.421875 264.558594 240.8125 263.464844 242.246094 C 262.726562 243.246094 261.867188 244.148438 261.070312 245.101562 Z M 290.75 194.007812 C 291.339844 191.773438 291.886719 189.523438 292.367188 187.253906 L 292.332031 187.246094 C 293.582031 181.265625 294.429688 175.195312 294.867188 169.089844 L 313.238281 170.386719 C 312.988281 174.71875 312.414062 179.019531 311.816406 183.3125 L 304.769531 182.203125 L 304.28125 184.945312 L 313.867188 186.644531 C 315.042969 180.355469 315.625 173.976562 316.050781 167.605469 L 295.03125 166.527344 C 295.109375 165.117188 295.15625 163.703125 295.1875 162.289062 L 295.234375 162.289062 C 295.234375 161.839844 295.214844 161.386719 295.210938 160.933594 C 295.214844 160.480469 295.234375 160.023438 295.234375 159.5625 L 295.1875 159.5625 C 295.054688 153.480469 294.511719 147.417969 293.570312 141.421875 L 311.816406 138.550781 C 312.414062 142.84375 312.988281 147.144531 313.238281 151.476562 L 306.121094 151.976562 L 306.332031 154.757812 L 316.050781 154.257812 C 315.625 147.882812 315.042969 141.507812 313.867188 135.21875 L 293.15625 138.886719 C 292.902344 137.449219 292.621094 136.015625 292.324219 134.585938 L 292.359375 134.578125 C 290.914062 127.753906 288.925781 121.050781 286.453125 114.535156 L 303.6875 107.917969 C 304.523438 109.917969 305.15625 111.996094 305.859375 114.046875 L 306.886719 117.132812 L 307.773438 120.257812 L 300.914062 122.234375 L 301.671875 124.917969 L 311.078125 122.402344 C 310.195312 119.332031 309.40625 116.230469 308.324219 113.21875 C 307.808594 111.707031 307.316406 110.1875 306.777344 108.679688 L 305.03125 104.21875 L 285.527344 112.144531 C 284.988281 110.796875 284.417969 109.460938 283.835938 108.128906 L 283.847656 108.125 C 283.734375 107.875 283.617188 107.632812 283.503906 107.382812 C 283.261719 106.84375 283.03125 106.300781 282.785156 105.765625 L 282.765625 105.777344 C 280.191406 100.238281 277.246094 94.871094 273.953125 89.726562 L 289.425781 79.675781 C 290.585938 81.503906 291.789062 83.308594 292.824219 85.210938 L 294.4375 88.03125 C 294.980469 88.964844 295.515625 89.910156 295.992188 90.882812 L 289.691406 94.246094 L 290.957031 96.726562 L 299.636719 92.304688 C 298.902344 90.886719 298.199219 89.449219 297.445312 88.042969 L 295.066406 83.886719 L 293.871094 81.8125 L 292.585938 79.789062 L 290.007812 75.757812 L 272.558594 87.578125 C 271.496094 85.992188 270.402344 84.433594 269.277344 82.894531 C 269.125 82.6875 268.976562 82.472656 268.820312 82.269531 C 268.734375 82.148438 268.648438 82.023438 268.558594 81.902344 L 268.546875 81.910156 C 267.535156 80.578125 266.476562 79.277344 265.464844 77.949219 C 264.710938 76.925781 263.835938 76.007812 263.019531 75.039062 L 260.535156 72.160156 L 257.921875 69.40625 C 257.484375 68.945312 257.050781 68.480469 256.613281 68.023438 L 269.703125 54.984375 L 274.164062 59.691406 L 278.40625 64.601562 L 272.933594 69.203125 C 273.554688 69.890625 274.105469 70.636719 274.679688 71.363281 L 282.265625 65.238281 C 281.304688 63.960938 280.261719 62.753906 279.214844 61.550781 L 276.085938 57.933594 L 272.796875 54.460938 L 271.148438 52.730469 L 269.429688 51.070312 L 254.78125 66.230469 C 253.734375 65.230469 252.695312 64.214844 251.625 63.230469 L 251.640625 63.214844 C 246.484375 58.53125 240.96875 54.257812 235.167969 50.417969 L 245.320312 34.933594 C 247.160156 36.0625 248.867188 37.394531 250.640625 38.628906 C 251.511719 39.269531 252.414062 39.863281 253.257812 40.542969 L 255.800781 42.550781 L 251.382812 48.179688 L 253.5625 49.902344 L 259.734375 42.339844 L 255.984375 39.375 C 255.359375 38.886719 254.742188 38.378906 254.101562 37.902344 L 252.160156 36.511719 L 248.269531 33.734375 L 244.257812 31.144531 L 233.023438 49.019531 C 231.800781 48.242188 230.5625 47.488281 229.316406 46.753906 L 229.324219 46.742188 C 228.992188 46.546875 228.65625 46.363281 228.324219 46.171875 C 227.914062 45.933594 227.503906 45.6875 227.089844 45.453125 L 227.082031 45.464844 C 221.773438 42.476562 216.269531 39.851562 210.613281 37.605469 L 217.339844 20.363281 C 219.347656 21.15625 221.363281 21.933594 223.3125 22.863281 L 226.261719 24.207031 L 227.738281 24.875 L 229.175781 25.617188 L 226.011719 32.042969 L 228.480469 33.3125 L 232.964844 24.632812 L 228.710938 22.453125 L 224.367188 20.476562 L 222.191406 19.492188 L 219.972656 18.601562 L 215.535156 16.839844 L 208.230469 36.683594 C 206.070312 35.871094 203.894531 35.109375 201.695312 34.414062 L 201.683594 34.460938 C 195.878906 32.636719 189.953125 31.203125 183.953125 30.199219 L 186.960938 11.9375 C 189.082031 12.335938 191.21875 12.664062 193.328125 13.121094 L 199.632812 14.585938 L 197.867188 21.535156 C 198.761719 21.761719 199.648438 22.035156 200.535156 22.28125 L 203.128906 12.851562 L 200.832031 12.199219 C 200.066406 11.992188 199.28125 11.828125 198.511719 11.644531 L 193.859375 10.566406 C 192.308594 10.207031 190.734375 9.980469 189.167969 9.683594 C 187.601562 9.421875 186.046875 9.070312 184.464844 8.890625 L 181.429688 29.796875 C 179.859375 29.566406 178.285156 29.375 176.703125 29.207031 C 176.011719 29.113281 175.316406 29.042969 174.621094 28.988281 C 174.601562 28.984375 174.582031 28.984375 174.558594 28.980469 L 174.558594 28.984375 C 174.15625 28.949219 173.753906 28.921875 173.351562 28.890625 L 169.570312 28.601562 C 167.046875 28.464844 164.511719 28.457031 161.984375 28.371094 C 160.089844 28.4375 158.191406 28.472656 156.296875 28.535156 L 155.523438 10.011719 L 161.988281 9.847656 L 168.453125 10.011719 L 168.15625 17.175781 C 169.082031 17.183594 170.003906 17.238281 170.921875 17.320312 L 171.515625 7.554688 C 169.929688 7.402344 168.34375 7.402344 166.753906 7.355469 L 161.988281 7.234375 L 157.222656 7.355469 C 155.636719 7.402344 154.046875 7.402344 152.460938 7.558594 L 153.742188 28.652344 L 150.621094 28.890625 C 150.21875 28.921875 149.816406 28.953125 149.410156 28.984375 C 149.386719 28.984375 149.363281 28.988281 149.339844 28.992188 C 148.671875 29.042969 148.003906 29.113281 147.339844 29.199219 C 141.121094 29.859375 134.964844 31.003906 128.917969 32.574219 L 124.347656 14.589844 L 130.652344 13.125 C 132.757812 12.667969 134.894531 12.339844 137.015625 11.941406 L 138.179688 19.015625 C 139.089844 18.855469 140 18.671875 140.917969 18.574219 L 139.511719 8.894531 C 137.929688 9.078125 136.375 9.425781 134.804688 9.683594 C 133.242188 9.984375 131.667969 10.210938 130.117188 10.570312 L 125.464844 11.648438 C 124.695312 11.835938 123.914062 11.996094 123.148438 12.203125 L 120.851562 12.859375 L 126.449219 33.230469 C 125.054688 33.621094 123.671875 34.035156 122.289062 34.472656 L 122.273438 34.421875 C 115.65625 36.523438 109.210938 39.152344 102.992188 42.246094 L 94.804688 25.625 L 96.242188 24.886719 L 97.714844 24.210938 L 100.664062 22.875 C 102.617188 21.941406 104.628906 21.164062 106.640625 20.375 L 109.246094 27.046875 L 111.824219 26.027344 L 108.441406 16.851562 L 104.003906 18.609375 L 101.789062 19.5 L 99.613281 20.488281 L 95.265625 22.460938 L 91.015625 24.640625 L 100.707031 43.40625 C 99.425781 44.074219 98.152344 44.769531 96.890625 45.480469 L 96.882812 45.464844 C 96.484375 45.691406 96.09375 45.929688 95.695312 46.160156 C 95.351562 46.359375 94.996094 46.550781 94.652344 46.753906 L 94.660156 46.765625 C 89.417969 49.871094 84.378906 53.328125 79.589844 57.105469 L 68.179688 42.5625 C 69.875 41.21875 71.5625 39.867188 73.34375 38.644531 L 75.976562 36.761719 L 77.300781 35.824219 L 78.664062 34.945312 L 82.589844 40.929688 L 84.921875 39.425781 L 79.726562 31.15625 L 75.710938 33.75 L 71.820312 36.527344 L 69.878906 37.917969 C 69.242188 38.394531 68.625 38.898438 67.996094 39.390625 L 64.246094 42.351562 L 77.59375 58.707031 C 75.804688 60.175781 74.050781 61.679688 72.339844 63.238281 L 72.351562 63.25 C 71.125 64.386719 69.933594 65.5625 68.71875 66.710938 C 67.78125 67.5625 66.9375 68.507812 66.058594 69.425781 L 63.441406 72.179688 L 60.957031 75.058594 C 60.550781 75.542969 60.132812 76.015625 59.71875 76.492188 L 45.578125 64.621094 L 49.816406 59.707031 L 54.285156 55 L 59.351562 60.050781 C 59.972656 59.363281 60.675781 58.753906 61.335938 58.105469 L 54.554688 51.085938 L 52.835938 52.746094 L 51.1875 54.480469 L 47.898438 57.953125 L 44.769531 61.570312 C 43.722656 62.773438 42.683594 63.980469 41.722656 65.253906 L 58.109375 78.492188 C 57.21875 79.640625 56.3125 80.773438 55.433594 81.933594 L 55.421875 81.925781 C 55.328125 82.054688 55.234375 82.191406 55.136719 82.320312 C 55.003906 82.496094 54.878906 82.679688 54.746094 82.859375 C 50.859375 88.171875 47.367188 93.777344 44.296875 99.605469 L 27.996094 90.902344 C 28.472656 89.925781 29.007812 88.984375 29.550781 88.050781 L 31.164062 85.230469 C 32.203125 83.328125 33.402344 81.523438 34.5625 79.695312 L 40.550781 83.585938 L 42.046875 81.242188 L 33.976562 75.773438 L 31.402344 79.8125 L 30.117188 81.832031 L 28.921875 83.90625 L 26.546875 88.066406 C 25.789062 89.46875 25.085938 90.90625 24.355469 92.324219 L 43.117188 101.878906 C 42.460938 103.179688 41.832031 104.484375 41.222656 105.800781 L 41.203125 105.792969 C 40.964844 106.3125 40.738281 106.839844 40.503906 107.363281 C 40.386719 107.628906 40.257812 107.886719 40.144531 108.152344 L 40.152344 108.15625 C 37.699219 113.75 35.621094 119.507812 33.941406 125.378906 L 16.222656 120.285156 L 17.105469 117.152344 L 18.132812 114.070312 C 18.839844 112.019531 19.46875 109.941406 20.304688 107.941406 L 26.96875 110.5 L 27.984375 107.90625 L 18.964844 104.242188 L 17.214844 108.707031 C 16.675781 110.210938 16.183594 111.730469 15.667969 113.242188 C 14.582031 116.253906 13.800781 119.355469 12.917969 122.425781 L 33.25 127.851562 C 32.660156 130.089844 32.109375 132.339844 31.632812 134.605469 L 31.667969 134.613281 C 30.417969 140.597656 29.570312 146.664062 29.132812 152.773438 L 10.761719 151.476562 C 11.011719 147.144531 11.585938 142.84375 12.183594 138.550781 L 19.230469 139.660156 L 19.71875 136.917969 L 10.132812 135.21875 C 8.957031 141.503906 8.375 147.882812 7.949219 154.257812 L 28.96875 155.335938 C 28.890625 156.746094 28.84375 158.160156 28.8125 159.574219 L 28.765625 159.574219 C 28.769531 160.023438 28.785156 160.476562 28.789062 160.929688 C 28.785156 161.382812 28.769531 161.839844 28.765625 162.296875 L 28.8125 162.296875 C 28.945312 168.378906 29.488281 174.445312 30.429688 180.441406 L 12.183594 183.3125 C 11.585938 179.015625 11.011719 174.714844 10.761719 170.386719 L 17.878906 169.882812 L 17.667969 167.105469 L 7.949219 167.605469 C 8.375 173.976562 8.957031 180.355469 10.132812 186.644531 L 30.84375 182.972656 C 31.097656 184.414062 31.378906 185.847656 31.675781 187.277344 L 31.640625 187.285156 C 33.085938 194.109375 35.074219 200.808594 37.546875 207.324219 L 20.3125 213.945312 C 19.480469 211.941406 18.84375 209.867188 18.140625 207.816406 L 17.113281 204.730469 L 16.226562 201.601562 L 23.085938 199.628906 L 22.328125 196.945312 L 12.921875 199.457031 C 13.804688 202.53125 14.59375 205.632812 15.675781 208.640625 C 16.191406 210.152344 16.683594 211.675781 17.222656 213.179688 L 18.96875 217.644531 L 38.472656 209.71875 C 39.011719 211.066406 39.582031 212.402344 40.164062 213.730469 L 40.152344 213.734375 C 40.265625 213.984375 40.382812 214.230469 40.496094 214.480469 C 40.738281 215.015625 40.96875 215.558594 41.214844 216.09375 L 41.234375 216.085938 C 43.808594 221.625 46.753906 226.988281 50.046875 232.136719 L 34.574219 242.1875 C 33.414062 240.359375 32.210938 238.554688 31.171875 236.65625 L 29.5625 233.832031 C 29.015625 232.898438 28.484375 231.953125 28.007812 230.980469 L 34.308594 227.617188 L 33.042969 225.136719 L 24.363281 229.558594 C 25.09375 230.976562 25.800781 232.414062 26.554688 233.820312 L 28.933594 237.976562 L 30.128906 240.050781 L 31.414062 242.070312 L 33.992188 246.105469 L 51.441406 234.285156 C 52.503906 235.871094 53.597656 237.429688 54.722656 238.96875 C 54.875 239.175781 55.023438 239.390625 55.175781 239.59375 C 55.265625 239.71875 55.351562 239.839844 55.441406 239.960938 L 55.453125 239.953125 C 56.464844 241.285156 57.523438 242.582031 58.535156 243.914062 C 59.289062 244.933594 60.164062 245.855469 60.980469 246.824219 L 63.460938 249.703125 L 66.078125 252.460938 C 66.519531 252.914062 66.945312 253.378906 67.386719 253.835938 L 54.296875 266.875 L 49.835938 262.167969 L 45.59375 257.257812 L 51.066406 252.660156 C 50.445312 251.972656 49.894531 251.222656 49.320312 250.496094 L 41.734375 256.625 C 42.699219 257.902344 43.738281 259.109375 44.785156 260.308594 L 47.914062 263.929688 L 51.203125 267.402344 L 52.851562 269.132812 L 54.570312 270.792969 L 69.21875 255.628906 C 70.265625 256.632812 71.308594 257.644531 72.375 258.632812 L 72.359375 258.644531 C 77.515625 263.328125 83.03125 267.601562 88.832031 271.441406 L 78.679688 286.929688 C 76.839844 285.800781 75.132812 284.46875 73.359375 283.230469 C 72.488281 282.59375 71.585938 281.996094 70.742188 281.320312 L 68.199219 279.3125 L 72.617188 273.683594 L 70.4375 271.960938 L 64.265625 279.523438 L 68.015625 282.488281 C 68.640625 282.980469 69.257812 283.484375 69.898438 283.960938 L 71.839844 285.351562 L 75.730469 288.128906 L 79.742188 290.714844 L 90.976562 272.839844 C 92.199219 273.617188 93.4375 274.371094 94.683594 275.109375 L 94.675781 275.121094 C 95.007812 275.316406 95.34375 275.5 95.679688 275.691406 C 96.089844 275.929688 96.496094 276.175781 96.910156 276.410156 L 96.917969 276.398438 C 102.226562 279.386719 107.730469 282.011719 113.386719 284.253906 L 106.660156 301.496094 C 104.652344 300.707031 102.636719 299.929688 100.6875 298.996094 L 97.738281 297.65625 L 96.261719 296.988281 L 94.824219 296.246094 L 97.988281 289.820312 L 95.519531 288.546875 L 91.035156 297.230469 L 95.289062 299.410156 L 99.632812 301.386719 L 101.808594 302.375 L 104.027344 303.261719 L 108.464844 305.019531 L 115.769531 285.179688 C 117.929688 285.992188 120.105469 286.753906 122.304688 287.449219 L 122.316406 287.402344 C 128.121094 289.222656 134.046875 290.660156 140.046875 291.664062 L 137.039062 309.921875 C 134.917969 309.527344 132.78125 309.199219 130.671875 308.742188 L 124.367188 307.277344 L 126.132812 300.328125 C 125.238281 300.101562 124.351562 299.828125 123.464844 299.582031 L 120.871094 309.011719 L 123.167969 309.664062 C 123.9375 309.871094 124.71875 310.03125 125.488281 310.21875 L 130.140625 311.296875 C 131.691406 311.652344 133.265625 311.882812 134.828125 312.179688 C 136.398438 312.4375 137.953125 312.789062 139.535156 312.972656 L 142.570312 292.066406 C 144.140625 292.296875 145.71875 292.488281 147.296875 292.65625 C 147.988281 292.75 148.683594 292.820312 149.375 292.875 C 149.398438 292.875 149.417969 292.878906 149.441406 292.878906 C 149.84375 292.910156 150.246094 292.941406 150.648438 292.972656 L 154.429688 293.261719 C 156.953125 293.398438 159.488281 293.40625 162.015625 293.492188 C 163.910156 293.425781 165.808594 293.390625 167.703125 293.328125 L 168.476562 311.851562 L 162.011719 312.015625 L 155.546875 311.851562 L 155.84375 304.6875 C 154.917969 304.679688 153.996094 304.625 153.078125 304.539062 L 152.484375 314.304688 C 154.070312 314.460938 155.65625 314.460938 157.246094 314.507812 L 162.011719 314.625 L 166.777344 314.507812 C 168.363281 314.460938 169.953125 314.457031 171.539062 314.304688 L 170.257812 293.210938 L 173.378906 292.972656 C 173.78125 292.941406 174.183594 292.90625 174.589844 292.878906 C 174.613281 292.875 174.636719 292.871094 174.660156 292.871094 C 175.328125 292.816406 175.996094 292.75 176.65625 292.660156 C 182.878906 292.003906 189.035156 290.855469 195.085938 289.289062 L 199.65625 307.273438 L 193.347656 308.734375 C 191.242188 309.195312 189.105469 309.523438 186.984375 309.921875 L 185.820312 302.84375 C 184.910156 303.003906 184.003906 303.191406 183.082031 303.289062 L 184.488281 312.96875 C 186.070312 312.785156 187.625 312.4375 189.195312 312.175781 C 190.757812 311.878906 192.332031 311.652344 193.882812 311.289062 L 198.535156 310.214844 C 199.304688 310.027344 200.085938 309.867188 200.851562 309.65625 L 203.148438 309.003906 L 197.550781 288.628906 C 198.945312 288.242188 200.328125 287.824219 201.710938 287.390625 L 201.726562 287.4375 C 208.34375 285.339844 214.789062 282.710938 221.007812 279.613281 L 229.195312 296.234375 L 227.757812 296.976562 L 226.285156 297.648438 L 223.335938 298.988281 C 221.382812 299.917969 219.371094 300.699219 217.359375 301.488281 L 214.753906 294.816406 L 212.175781 295.835938 L 215.558594 305.007812 L 219.996094 303.253906 L 222.210938 302.363281 L 224.386719 301.375 L 228.734375 299.398438 L 232.984375 297.222656 L 223.292969 278.457031 C 224.574219 277.785156 225.847656 277.09375 227.109375 276.382812 L 227.117188 276.398438 C 227.515625 276.167969 227.90625 275.933594 228.304688 275.699219 C 228.652344 275.5 229.003906 275.308594 229.347656 275.109375 L 229.339844 275.09375 C 234.582031 271.988281 239.621094 268.535156 244.410156 264.753906 L 255.820312 279.296875 C 254.125 280.644531 252.4375 281.996094 250.65625 283.21875 L 248.019531 285.101562 L 246.699219 286.039062 L 245.335938 286.917969 L 241.410156 280.929688 L 239.078125 282.433594 L 244.277344 290.707031 L 248.289062 288.113281 L 252.179688 285.335938 L 254.121094 283.945312 C 254.757812 283.46875 255.375 282.964844 256.003906 282.472656 L 259.753906 279.511719 L 246.40625 263.15625 C 248.195312 261.6875 249.953125 260.179688 251.660156 258.628906 L 251.648438 258.613281 C 252.875 257.476562 254.066406 256.300781 255.28125 255.152344 C 256.21875 254.296875 257.0625 253.351562 257.941406 252.4375 L 260.558594 249.679688 L 263.039062 246.804688 C 263.449219 246.320312 263.867188 245.847656 264.28125 245.367188 L 278.421875 257.242188 L 274.179688 262.152344 L 269.714844 266.859375 L 264.648438 261.8125 C 264.027344 262.5 263.324219 263.105469 262.664062 263.757812 L 269.445312 270.777344 L 271.164062 269.117188 L 272.8125 267.382812 L 276.101562 263.910156 L 279.230469 260.292969 C 280.277344 259.089844 281.316406 257.882812 282.277344 256.609375 L 265.890625 243.371094 C 266.78125 242.222656 267.6875 241.085938 268.566406 239.929688 L 268.578125 239.9375 C 268.671875 239.808594 268.765625 239.675781 268.863281 239.542969 C 268.996094 239.363281 269.121094 239.183594 269.253906 239 C 273.144531 233.6875 276.632812 228.085938 279.703125 222.261719 L 296 230.960938 C 295.527344 231.933594 294.992188 232.878906 294.449219 233.8125 L 292.835938 236.632812 C 291.796875 238.535156 290.597656 240.339844 289.4375 242.167969 L 283.449219 238.277344 L 281.953125 240.621094 L 290.023438 246.085938 L 292.601562 242.054688 L 293.882812 240.03125 L 295.078125 237.957031 L 297.453125 233.796875 C 298.210938 232.394531 298.914062 230.957031 299.644531 229.539062 L 280.882812 219.980469 C 281.539062 218.683594 282.167969 217.375 282.777344 216.058594 L 282.796875 216.066406 C 283.035156 215.546875 283.261719 215.019531 283.496094 214.496094 C 283.613281 214.234375 283.742188 213.972656 283.855469 213.710938 L 283.847656 213.707031 C 286.304688 208.113281 288.378906 202.355469 290.058594 196.480469 L 307.777344 201.578125 L 306.894531 204.710938 L 305.867188 207.792969 C 305.160156 209.84375 304.53125 211.917969 303.695312 213.921875 L 297.03125 211.363281 L 296.011719 213.953125 L 305.035156 217.621094 L 306.785156 213.15625 C 307.324219 211.65625 307.816406 210.132812 308.332031 208.621094 C 309.414062 205.609375 310.199219 202.507812 311.082031 199.433594 L 290.75 194.007812 "/><g clip-rule="nonzero" clip-path="url(#6f3eb4f503)"><path style=" stroke:none;fill-rule:nonzero;fill:#bf987e;fill-opacity:1;" d="M 290.226562 216.546875 C 291.078125 214.753906 291.785156 212.894531 292.507812 211.046875 L 293.597656 208.261719 C 293.941406 207.324219 294.242188 206.375 294.566406 205.429688 L 300.988281 207.652344 L 301.886719 204.964844 L 292.953125 202.066406 C 292.046875 204.761719 291.183594 207.46875 290.085938 210.09375 C 289.554688 211.40625 289.085938 212.75 288.5 214.046875 L 286.753906 217.929688 L 306.011719 226.957031 C 301.789062 236.066406 296.703125 244.765625 290.851562 252.90625 L 275.726562 241.933594 C 278.078125 238.726562 280.207031 235.363281 282.289062 231.972656 L 288.109375 235.484375 L 289.515625 233.027344 L 281.375 228.328125 C 278.617188 233.300781 275.390625 237.984375 272.0625 242.582031 L 289.054688 255.417969 C 283.050781 263.449219 276.300781 270.914062 268.90625 277.671875 L 256.347656 263.804688 L 260.640625 259.691406 C 262.058594 258.292969 263.394531 256.8125 264.777344 255.378906 L 269.757812 260.019531 C 270.410156 259.34375 271.050781 258.652344 271.65625 257.929688 L 264.652344 251.640625 C 263.753906 252.738281 262.730469 253.726562 261.765625 254.765625 C 260.777344 255.785156 259.835938 256.851562 258.8125 257.835938 C 256.746094 259.773438 254.773438 261.816406 252.585938 263.632812 L 266.589844 279.703125 C 259.074219 286.320312 250.941406 292.226562 242.320312 297.316406 L 232.875 281.148438 C 234.609375 280.191406 236.253906 279.082031 237.921875 278.015625 L 240.429688 276.398438 L 242.855469 274.660156 L 246.777344 280.238281 L 249.074219 278.589844 L 243.503906 270.992188 C 241.191406 272.628906 238.925781 274.339844 236.511719 275.820312 C 235.316406 276.578125 234.140625 277.378906 232.925781 278.105469 L 229.246094 280.230469 L 239.652344 298.859375 C 230.933594 303.777344 221.753906 307.863281 212.261719 311.039062 L 206.363281 293.25 C 210.136719 292.035156 213.816406 290.546875 217.472656 289.011719 L 220.160156 295.28125 L 222.730469 294.113281 L 218.84375 285.523438 C 213.726562 287.949219 208.382812 289.839844 203.019531 291.632812 L 209.347656 312.027344 C 199.792969 315.015625 189.957031 317.078125 180.027344 318.195312 L 177.929688 299.5625 C 179.890625 299.300781 181.855469 299.085938 183.8125 298.789062 L 189.675781 297.738281 L 191.007812 304.429688 C 191.9375 304.28125 192.84375 304.023438 193.761719 303.824219 L 191.738281 294.609375 L 189.675781 295.085938 L 187.585938 295.457031 L 183.410156 296.210938 C 182.011719 296.433594 180.605469 296.578125 179.203125 296.769531 C 177.796875 296.925781 176.40625 297.179688 174.988281 297.253906 L 176.96875 318.519531 C 174.480469 318.703125 172 318.933594 169.511719 319.058594 L 162.011719 319.246094 L 154.511719 319.058594 C 152.023438 318.9375 149.539062 318.703125 147.054688 318.523438 L 148.792969 299.851562 L 154.703125 300.308594 L 160.664062 300.460938 L 160.601562 307.289062 L 162.011719 307.324219 L 163.421875 307.289062 L 163.332031 297.847656 C 161.914062 297.921875 160.5 297.832031 159.082031 297.808594 L 154.839844 297.699219 L 150.605469 297.375 C 149.195312 297.261719 147.78125 297.183594 146.382812 296.972656 L 143.996094 318.199219 C 134.066406 317.082031 124.230469 315.019531 114.675781 312.035156 L 120.230469 294.132812 L 125.929688 295.765625 C 127.835938 296.320312 129.792969 296.691406 131.71875 297.164062 L 130.257812 303.828125 C 131.175781 304.027344 132.085938 304.285156 133.015625 304.4375 L 134.855469 295.179688 C 133.464844 294.921875 132.097656 294.554688 130.714844 294.25 C 129.347656 293.90625 127.945312 293.664062 126.597656 293.242188 C 123.882812 292.441406 121.136719 291.753906 118.476562 290.777344 L 111.757812 311.046875 C 102.269531 307.871094 93.085938 303.785156 84.367188 298.867188 L 93.5 282.515625 C 95.191406 283.546875 96.976562 284.402344 98.730469 285.316406 L 101.382812 286.675781 L 104.097656 287.90625 L 101.292969 294.125 L 103.859375 295.292969 L 107.578125 286.625 C 105.011719 285.429688 102.394531 284.34375 99.90625 282.988281 C 98.648438 282.332031 97.382812 281.707031 96.136719 281.03125 L 92.460938 278.90625 L 81.699219 297.328125 C 73.078125 292.238281 64.945312 286.332031 57.429688 279.71875 L 69.71875 265.609375 C 72.671875 268.265625 75.804688 270.714844 78.96875 273.105469 L 74.945312 278.605469 L 77.242188 280.25 L 82.664062 272.542969 C 77.996094 269.324219 73.667969 265.636719 69.414062 261.890625 L 55.109375 277.6875 C 47.714844 270.929688 40.964844 263.464844 34.960938 255.4375 L 49.875 244.167969 L 53.535156 248.855469 C 54.804688 250.394531 56.132812 251.882812 57.425781 253.398438 L 52.359375 257.941406 C 52.960938 258.667969 53.605469 259.359375 54.257812 260.039062 L 61.140625 253.617188 C 60.140625 252.609375 59.242188 251.507812 58.3125 250.4375 C 57.394531 249.355469 56.441406 248.300781 55.546875 247.199219 L 52.925781 243.84375 C 52.492188 243.28125 52.042969 242.730469 51.621094 242.160156 L 50.390625 240.421875 L 33.160156 252.929688 C 27.3125 244.789062 22.226562 236.089844 17.996094 226.980469 L 34.902344 219.054688 C 35.671875 220.886719 36.644531 222.617188 37.527344 224.398438 C 37.988281 225.28125 38.414062 226.183594 38.898438 227.054688 L 40.386719 229.648438 L 34.496094 233.050781 L 35.902344 235.507812 L 43.953125 230.648438 C 42.570312 228.167969 41.0625 225.757812 39.832031 223.191406 L 37.902344 219.394531 L 36.15625 215.507812 L 16.726562 224.160156 C 12.675781 214.960938 9.496094 205.371094 7.25 195.570312 L 25.425781 191.355469 L 26.09375 194.269531 C 26.3125 195.242188 26.625 196.191406 26.882812 197.152344 L 28.101562 201.476562 L 28.578125 202.894531 L 22.117188 204.988281 L 23.019531 207.671875 L 31.898438 204.601562 L 30.542969 200.5625 L 29.386719 196.460938 L 28.804688 194.410156 C 28.621094 193.726562 28.484375 193.027344 28.316406 192.335938 L 27.363281 188.179688 L 6.566406 192.578125 C 4.511719 182.722656 3.402344 172.671875 3.21875 162.625 L 20.34375 162.296875 L 21.871094 162.296875 L 21.945312 165.265625 L 21.980469 166.761719 L 22.089844 168.253906 L 22.554688 174.226562 L 15.800781 174.929688 L 16.15625 177.742188 L 25.472656 176.589844 C 25.050781 173.777344 24.917969 170.929688 24.683594 168.09375 C 24.542969 166.679688 24.550781 165.253906 24.507812 163.832031 L 24.398438 159.5625 L 20.347656 159.5625 L 3.21875 159.242188 C 3.402344 149.199219 4.511719 139.160156 6.5625 129.308594 L 24.816406 133.164062 C 24.0625 137.074219 23.324219 140.992188 22.894531 144.953125 L 16.15625 144.121094 L 15.800781 146.933594 L 25.140625 147.902344 C 25.820312 142.257812 26.613281 136.617188 27.957031 131.09375 L 7.25 126.292969 C 9.496094 116.5 12.671875 106.917969 16.714844 97.722656 L 33.773438 105.316406 C 32.921875 107.109375 32.214844 108.964844 31.492188 110.816406 L 30.402344 113.601562 C 30.058594 114.535156 29.757812 115.488281 29.433594 116.433594 L 23.011719 114.210938 L 22.109375 116.894531 L 31.046875 119.792969 C 31.953125 117.101562 32.816406 114.394531 33.914062 111.769531 C 34.445312 110.453125 34.914062 109.113281 35.5 107.816406 L 37.246094 103.933594 L 17.988281 94.902344 C 22.210938 85.796875 27.296875 77.097656 33.148438 68.953125 L 48.273438 79.929688 C 45.921875 83.136719 43.792969 86.5 41.710938 89.890625 L 35.890625 86.375 L 34.484375 88.835938 L 42.628906 93.535156 C 45.382812 88.5625 48.609375 83.878906 51.9375 79.28125 L 34.949219 66.445312 C 40.949219 58.414062 47.699219 50.949219 55.09375 44.191406 L 67.652344 58.058594 L 63.359375 62.171875 C 61.941406 63.570312 60.605469 65.050781 59.222656 66.484375 L 54.242188 61.839844 C 53.585938 62.515625 52.949219 63.207031 52.34375 63.933594 L 59.347656 70.222656 C 60.25 69.121094 61.269531 68.136719 62.234375 67.09375 C 63.222656 66.074219 64.164062 65.011719 65.1875 64.027344 C 67.253906 62.089844 69.226562 60.042969 71.414062 58.230469 L 57.410156 42.160156 C 64.925781 35.542969 73.058594 29.636719 81.679688 24.546875 L 91.125 40.714844 C 89.390625 41.671875 87.746094 42.777344 86.078125 43.847656 L 83.570312 45.464844 L 81.144531 47.199219 L 77.226562 41.628906 L 74.925781 43.269531 L 80.496094 50.871094 C 82.808594 49.234375 85.074219 47.523438 87.488281 46.039062 C 88.683594 45.28125 89.859375 44.484375 91.070312 43.757812 L 94.753906 41.632812 L 84.347656 23.003906 C 93.066406 18.085938 102.246094 14 111.734375 10.824219 L 117.636719 28.613281 C 113.863281 29.824219 110.183594 31.316406 106.53125 32.847656 L 103.839844 26.578125 L 101.269531 27.746094 L 105.15625 36.34375 C 110.273438 33.914062 115.617188 32.023438 120.980469 30.230469 L 114.65625 9.832031 C 124.207031 6.847656 134.039062 4.78125 143.972656 3.664062 L 146.070312 22.296875 C 144.109375 22.558594 142.144531 22.777344 140.1875 23.074219 L 134.324219 24.125 L 132.992188 17.433594 C 132.0625 17.582031 131.15625 17.839844 130.238281 18.039062 L 132.261719 27.253906 L 134.324219 26.777344 L 136.414062 26.40625 L 140.589844 25.652344 C 141.988281 25.429688 143.394531 25.285156 144.796875 25.09375 C 146.203125 24.9375 147.59375 24.679688 149.011719 24.613281 L 147.03125 3.339844 C 149.519531 3.160156 152 2.929688 154.488281 2.804688 L 161.988281 2.617188 L 169.488281 2.804688 C 171.976562 2.921875 174.460938 3.160156 176.945312 3.335938 L 175.207031 22.007812 L 169.296875 21.554688 L 163.335938 21.402344 L 163.398438 14.574219 L 161.988281 14.539062 L 160.578125 14.574219 L 160.667969 24.011719 C 162.085938 23.941406 163.5 24.03125 164.917969 24.054688 L 169.160156 24.164062 L 173.394531 24.492188 C 174.804688 24.597656 176.21875 24.679688 177.617188 24.890625 L 180.003906 3.664062 C 189.933594 4.777344 199.769531 6.839844 209.324219 9.828125 L 203.769531 27.730469 L 198.070312 26.097656 C 196.164062 25.542969 194.207031 25.175781 192.28125 24.699219 L 193.742188 18.03125 C 192.824219 17.832031 191.914062 17.574219 190.984375 17.425781 L 189.144531 26.683594 C 190.535156 26.941406 191.902344 27.308594 193.285156 27.613281 C 194.65625 27.957031 196.054688 28.195312 197.402344 28.621094 C 200.117188 29.417969 202.863281 30.105469 205.523438 31.082031 L 212.242188 10.816406 C 221.730469 13.992188 230.914062 18.074219 239.632812 22.992188 L 230.5 39.34375 C 228.808594 38.316406 227.023438 37.460938 225.269531 36.542969 L 222.617188 35.1875 L 219.902344 33.953125 L 222.707031 27.738281 L 220.140625 26.570312 L 216.421875 35.238281 C 218.988281 36.429688 221.605469 37.515625 224.09375 38.875 C 225.351562 39.527344 226.617188 40.152344 227.863281 40.828125 L 231.539062 42.957031 L 242.300781 24.535156 C 250.921875 29.621094 259.054688 35.527344 266.570312 42.144531 L 254.28125 56.25 C 251.328125 53.597656 248.195312 51.148438 245.03125 48.753906 L 249.054688 43.257812 L 246.757812 41.613281 L 241.335938 49.320312 C 246.003906 52.539062 250.332031 56.226562 254.585938 59.976562 L 268.890625 44.175781 C 276.285156 50.933594 283.035156 58.394531 289.039062 66.425781 L 274.125 77.695312 L 270.460938 73.007812 C 269.195312 71.46875 267.867188 69.980469 266.574219 68.464844 L 271.640625 63.917969 C 271.039062 63.195312 270.394531 62.503906 269.738281 61.828125 L 262.859375 68.246094 C 263.859375 69.253906 264.757812 70.355469 265.6875 71.425781 C 266.605469 72.507812 267.558594 73.5625 268.453125 74.660156 L 271.074219 78.019531 C 271.507812 78.578125 271.957031 79.128906 272.378906 79.699219 L 273.609375 81.441406 L 290.835938 68.933594 C 296.6875 77.074219 301.773438 85.773438 306.003906 94.882812 L 289.097656 102.808594 C 288.328125 100.980469 287.355469 99.246094 286.472656 97.46875 C 286.011719 96.582031 285.585938 95.679688 285.101562 94.8125 L 283.613281 92.214844 L 289.503906 88.8125 L 288.097656 86.355469 L 280.046875 91.214844 C 281.429688 93.695312 282.9375 96.105469 284.167969 98.671875 L 286.097656 102.46875 L 287.84375 106.355469 L 307.273438 97.703125 C 311.324219 106.902344 314.503906 116.492188 316.75 126.292969 L 298.574219 130.507812 L 297.90625 127.59375 C 297.6875 126.621094 297.375 125.671875 297.117188 124.707031 L 296.304688 121.828125 L 295.898438 120.386719 L 295.421875 118.96875 L 301.882812 116.871094 L 300.976562 114.1875 L 292.101562 117.261719 L 293.457031 121.300781 L 294.613281 125.402344 L 295.195312 127.453125 C 295.378906 128.136719 295.515625 128.835938 295.683594 129.527344 L 296.636719 133.679688 L 317.433594 129.285156 C 319.488281 139.140625 320.601562 149.191406 320.78125 159.242188 L 303.65625 159.566406 L 302.128906 159.566406 L 302.054688 156.597656 L 302.019531 155.101562 L 301.910156 153.605469 L 301.445312 147.636719 L 308.199219 146.933594 L 307.84375 144.121094 L 298.527344 145.273438 C 298.949219 148.085938 299.082031 150.929688 299.316406 153.765625 C 299.457031 155.179688 299.445312 156.605469 299.492188 158.03125 L 299.601562 162.296875 L 303.652344 162.296875 L 320.78125 162.625 C 320.601562 172.664062 319.488281 182.703125 317.4375 192.550781 L 299.183594 188.699219 C 299.9375 184.789062 300.675781 180.871094 301.105469 176.910156 L 307.84375 177.742188 L 308.199219 174.929688 L 298.863281 173.960938 C 298.179688 179.601562 297.386719 185.246094 296.042969 190.769531 L 316.75 195.570312 C 314.503906 205.367188 311.332031 214.945312 307.285156 224.136719 Z M 319.945312 193.082031 C 322.0625 182.949219 323.21875 172.628906 323.410156 162.296875 L 323.453125 162.296875 C 323.453125 161.839844 323.433594 161.382812 323.433594 160.929688 C 323.433594 160.472656 323.449219 160.019531 323.453125 159.566406 L 323.410156 159.566406 C 323.21875 149.226562 322.058594 138.890625 319.9375 128.757812 L 319.976562 128.746094 C 317.648438 117.726562 314.164062 106.953125 309.636719 96.648438 L 309.652344 96.644531 C 309.503906 96.316406 309.347656 95.992188 309.203125 95.667969 C 308.917969 95.039062 308.648438 94.40625 308.359375 93.777344 L 308.339844 93.785156 C 303.832031 84.097656 298.40625 74.851562 292.113281 66.234375 C 291.882812 65.914062 291.652344 65.59375 291.417969 65.273438 C 291.3125 65.136719 291.21875 64.996094 291.113281 64.855469 L 291.105469 64.863281 C 289.882812 63.25 288.609375 61.675781 287.375 60.070312 C 286.453125 58.84375 285.40625 57.71875 284.417969 56.542969 L 281.40625 53.066406 L 278.242188 49.722656 C 277.183594 48.613281 276.148438 47.480469 275.023438 46.4375 C 273.554688 45.046875 272.109375 43.628906 270.625 42.257812 L 270.640625 42.242188 C 262.339844 34.691406 253.261719 28.007812 243.605469 22.296875 L 243.617188 22.28125 C 243.207031 22.039062 242.785156 21.8125 242.375 21.574219 C 241.882812 21.289062 241.398438 20.992188 240.90625 20.714844 L 240.894531 20.730469 C 231.121094 15.226562 220.789062 10.714844 210.09375 7.332031 L 210.082031 7.382812 C 200.285156 4.308594 190.207031 2.144531 180.011719 1.035156 C 179.105469 0.910156 178.191406 0.824219 177.28125 0.75 C 177.25 0.746094 177.21875 0.742188 177.1875 0.738281 C 176.699219 0.703125 176.214844 0.660156 175.730469 0.625 L 171.152344 0.277344 C 168.101562 0.113281 165.042969 0.0898438 161.988281 0.00390625 C 158.933594 0.0898438 155.875 0.109375 152.824219 0.28125 L 148.246094 0.625 C 147.761719 0.664062 147.273438 0.703125 146.789062 0.742188 L 146.789062 0.738281 C 146.753906 0.742188 146.722656 0.746094 146.6875 0.75 C 145.800781 0.824219 144.914062 0.910156 144.03125 1.03125 C 133.8125 2.140625 123.710938 4.308594 113.898438 7.390625 L 113.882812 7.339844 C 103.1875 10.726562 92.855469 15.238281 83.085938 20.742188 L 83.074219 20.726562 C 82.589844 21 82.117188 21.289062 81.636719 21.570312 C 81.214844 21.8125 80.785156 22.046875 80.363281 22.296875 L 80.371094 22.308594 C 70.964844 27.875 62.109375 34.371094 53.984375 41.691406 C 53.976562 41.699219 53.96875 41.707031 53.964844 41.710938 C 53.757812 41.894531 53.546875 42.074219 53.34375 42.261719 L 53.359375 42.273438 C 51.871094 43.644531 50.425781 45.0625 48.960938 46.457031 C 47.835938 47.496094 46.800781 48.632812 45.742188 49.738281 L 42.578125 53.082031 L 39.566406 56.5625 C 38.578125 57.734375 37.53125 58.863281 36.609375 60.089844 C 35.375 61.695312 34.105469 63.269531 32.882812 64.882812 L 32.871094 64.875 C 32.761719 65.019531 32.660156 65.171875 32.554688 65.316406 C 32.332031 65.609375 32.121094 65.910156 31.90625 66.207031 C 25.601562 74.839844 20.160156 84.105469 15.652344 93.8125 L 15.628906 93.800781 C 15.34375 94.414062 15.082031 95.039062 14.804688 95.65625 C 14.652344 95.992188 14.492188 96.328125 14.339844 96.667969 L 14.351562 96.671875 C 9.824219 106.976562 6.34375 117.75 4.015625 128.769531 L 4.058594 128.777344 C 1.9375 138.910156 0.78125 149.234375 0.589844 159.5625 L 0.546875 159.5625 C 0.546875 160.019531 0.566406 160.476562 0.566406 160.933594 C 0.566406 161.386719 0.546875 161.84375 0.546875 162.296875 L 0.589844 162.296875 C 0.78125 172.636719 1.941406 182.96875 4.0625 193.109375 L 4.023438 193.113281 C 6.351562 204.136719 9.835938 214.910156 14.363281 225.210938 L 14.347656 225.214844 C 14.496094 225.542969 14.652344 225.871094 14.800781 226.199219 C 15.082031 226.824219 15.351562 227.460938 15.640625 228.085938 L 15.660156 228.074219 C 20.167969 237.761719 25.59375 247.011719 31.886719 255.628906 C 32.117188 255.949219 32.347656 256.269531 32.582031 256.585938 C 32.683594 256.726562 32.78125 256.867188 32.886719 257.003906 L 32.894531 256.996094 C 34.117188 258.613281 35.390625 260.1875 36.625 261.789062 C 37.546875 263.019531 38.59375 264.144531 39.582031 265.316406 L 42.59375 268.796875 L 45.757812 272.136719 C 46.820312 273.25 47.851562 274.382812 48.976562 275.421875 C 50.445312 276.816406 51.890625 278.234375 53.371094 279.601562 L 53.359375 279.617188 C 61.660156 287.171875 70.738281 293.855469 80.390625 299.566406 L 80.382812 299.582031 C 80.792969 299.824219 81.214844 300.050781 81.625 300.285156 C 82.117188 300.570312 82.601562 300.867188 83.09375 301.148438 L 83.105469 301.132812 C 92.878906 306.632812 103.210938 311.144531 113.90625 314.53125 L 113.917969 314.476562 C 123.714844 317.554688 133.792969 319.714844 143.988281 320.828125 C 144.894531 320.949219 145.808594 321.042969 146.71875 321.113281 C 146.75 321.117188 146.78125 321.121094 146.8125 321.125 L 146.8125 321.121094 C 147.300781 321.164062 147.785156 321.203125 148.269531 321.238281 L 152.847656 321.582031 C 155.898438 321.75 158.957031 321.773438 162.011719 321.859375 C 165.066406 321.769531 168.125 321.75 171.175781 321.582031 L 175.753906 321.234375 C 176.238281 321.199219 176.726562 321.160156 177.210938 321.121094 C 177.246094 321.121094 177.277344 321.113281 177.3125 321.113281 C 178.199219 321.039062 179.082031 320.949219 179.964844 320.832031 C 190.179688 319.722656 200.285156 317.554688 210.101562 314.472656 L 210.117188 314.523438 C 220.8125 311.136719 231.144531 306.625 240.914062 301.121094 L 240.925781 301.132812 C 241.410156 300.863281 241.882812 300.570312 242.363281 300.292969 C 242.785156 300.050781 243.214844 299.816406 243.636719 299.566406 L 243.628906 299.550781 C 253.035156 293.988281 261.890625 287.496094 270.007812 280.171875 C 270.019531 280.164062 270.03125 280.160156 270.035156 280.152344 C 270.242188 279.964844 270.453125 279.789062 270.65625 279.601562 L 270.644531 279.589844 C 272.128906 278.214844 273.574219 276.800781 275.035156 275.40625 C 276.164062 274.363281 277.199219 273.226562 278.257812 272.121094 L 281.421875 268.78125 L 284.433594 265.300781 C 285.421875 264.125 286.46875 263 287.390625 261.769531 C 288.625 260.167969 289.894531 258.589844 291.121094 256.980469 L 291.125 256.988281 C 291.238281 256.839844 291.339844 256.691406 291.449219 256.542969 C 291.667969 256.25 291.878906 255.953125 292.09375 255.65625 C 298.398438 247.023438 303.835938 237.757812 308.347656 228.050781 L 308.371094 228.0625 C 308.65625 227.445312 308.917969 226.824219 309.195312 226.207031 C 309.347656 225.867188 309.507812 225.535156 309.660156 225.195312 L 309.648438 225.191406 C 314.175781 214.882812 317.65625 204.113281 319.984375 193.089844 L 319.945312 193.082031 "/></g><g style="fill:#cdc9c9;fill-opacity:1;"><g transform="translate(80.482074, 123.284235)"><path style="stroke:none" d="M 32.390625 -10.203125 C 32.390625 -6.722656 31.078125 -4.035156 28.453125 -2.140625 C 25.828125 -0.253906 22.148438 0.6875 17.421875 0.6875 C 12.828125 0.6875 9.285156 -0.0664062 6.796875 -1.578125 C 4.304688 -3.097656 2.6875 -5.457031 1.9375 -8.65625 L 7.359375 -9.71875 C 7.890625 -7.738281 8.972656 -6.285156 10.609375 -5.359375 C 12.242188 -4.441406 14.515625 -3.984375 17.421875 -3.984375 C 20.535156 -3.984375 22.816406 -4.460938 24.265625 -5.421875 C 25.710938 -6.378906 26.4375 -7.8125 26.4375 -9.71875 C 26.4375 -11.175781 25.929688 -12.359375 24.921875 -13.265625 C 23.921875 -14.171875 22.3125 -14.921875 20.09375 -15.515625 L 15.6875 -16.671875 C 12.164062 -17.585938 9.660156 -18.484375 8.171875 -19.359375 C 6.679688 -20.234375 5.515625 -21.296875 4.671875 -22.546875 C 3.828125 -23.796875 3.40625 -25.328125 3.40625 -27.140625 C 3.40625 -30.503906 4.601562 -33.066406 7 -34.828125 C 9.40625 -36.597656 12.90625 -37.484375 17.5 -37.484375 C 21.5625 -37.484375 24.789062 -36.765625 27.1875 -35.328125 C 29.59375 -33.898438 31.113281 -31.601562 31.75 -28.4375 L 26.21875 -27.765625 C 25.882812 -29.398438 24.972656 -30.65625 23.484375 -31.53125 C 21.992188 -32.40625 20 -32.84375 17.5 -32.84375 C 14.71875 -32.84375 12.664062 -32.421875 11.34375 -31.578125 C 10.03125 -30.734375 9.375 -29.460938 9.375 -27.765625 C 9.375 -26.710938 9.644531 -25.84375 10.1875 -25.15625 C 10.738281 -24.476562 11.546875 -23.898438 12.609375 -23.421875 C 13.679688 -22.953125 15.9375 -22.296875 19.375 -21.453125 C 22.625 -20.628906 24.960938 -19.867188 26.390625 -19.171875 C 27.828125 -18.484375 28.957031 -17.71875 29.78125 -16.875 C 30.613281 -16.039062 31.253906 -15.070312 31.703125 -13.96875 C 32.160156 -12.863281 32.390625 -11.609375 32.390625 -10.203125 Z M 32.390625 -10.203125 "/></g></g><g style="fill:#cdc9c9;fill-opacity:1;"><g transform="translate(115.398298, 123.284235)"><path style="stroke:none" d="M 4.671875 -44.75 L 4.671875 -50.609375 L 10.8125 -50.609375 L 10.8125 -44.75 Z M 4.671875 0 L 4.671875 -36.90625 L 10.8125 -36.90625 L 10.8125 0 Z M 4.671875 0 "/></g></g><g style="fill:#cdc9c9;fill-opacity:1;"><g transform="translate(130.912831, 123.284235)"><path style="stroke:none" d="M 28.140625 0 L 28.140625 -23.390625 C 28.140625 -25.828125 27.898438 -27.710938 27.421875 -29.046875 C 26.941406 -30.390625 26.175781 -31.359375 25.125 -31.953125 C 24.082031 -32.546875 22.550781 -32.84375 20.53125 -32.84375 C 17.570312 -32.84375 15.238281 -31.828125 13.53125 -29.796875 C 11.832031 -27.773438 10.984375 -24.972656 10.984375 -21.390625 L 10.984375 0 L 4.84375 0 L 4.84375 -29.015625 C 4.84375 -33.316406 4.773438 -35.945312 4.640625 -36.90625 L 10.4375 -36.90625 C 10.457031 -36.789062 10.476562 -36.484375 10.5 -35.984375 C 10.519531 -35.484375 10.546875 -34.90625 10.578125 -34.25 C 10.617188 -33.601562 10.660156 -32.382812 10.703125 -30.59375 L 10.8125 -30.59375 C 12.21875 -33.132812 13.847656 -34.929688 15.703125 -35.984375 C 17.554688 -37.046875 19.859375 -37.578125 22.609375 -37.578125 C 26.660156 -37.578125 29.625 -36.570312 31.5 -34.5625 C 33.375 -32.550781 34.3125 -29.226562 34.3125 -24.59375 L 34.3125 0 Z M 28.140625 0 "/></g></g><g style="fill:#cdc9c9;fill-opacity:1;"><g transform="translate(169.75031, 123.284235)"><path style="stroke:none" d="M 9.375 -18.625 C 9.375 -13.707031 10.144531 -10.066406 11.6875 -7.703125 C 13.238281 -5.335938 15.570312 -4.15625 18.6875 -4.15625 C 20.875 -4.15625 22.695312 -4.742188 24.15625 -5.921875 C 25.625 -7.109375 26.53125 -8.929688 26.875 -11.390625 L 33.078125 -10.984375 C 32.597656 -7.429688 31.082031 -4.597656 28.53125 -2.484375 C 25.988281 -0.367188 22.765625 0.6875 18.859375 0.6875 C 13.703125 0.6875 9.765625 -0.941406 7.046875 -4.203125 C 4.328125 -7.472656 2.96875 -12.234375 2.96875 -18.484375 C 2.96875 -24.691406 4.332031 -29.425781 7.0625 -32.6875 C 9.789062 -35.945312 13.703125 -37.578125 18.796875 -37.578125 C 22.566406 -37.578125 25.695312 -36.597656 28.1875 -34.640625 C 30.675781 -32.691406 32.238281 -30 32.875 -26.5625 L 26.5625 -26.09375 C 26.25 -28.132812 25.441406 -29.753906 24.140625 -30.953125 C 22.847656 -32.160156 21.007812 -32.765625 18.625 -32.765625 C 15.375 -32.765625 13.019531 -31.6875 11.5625 -29.53125 C 10.101562 -27.375 9.375 -23.738281 9.375 -18.625 Z M 9.375 -18.625 "/></g></g><g style="fill:#cdc9c9;fill-opacity:1;"><g transform="translate(204.666534, 123.284235)"><path style="stroke:none" d="M 9.40625 -17.15625 C 9.40625 -12.925781 10.28125 -9.660156 12.03125 -7.359375 C 13.789062 -5.066406 16.351562 -3.921875 19.71875 -3.921875 C 22.375 -3.921875 24.503906 -4.453125 26.109375 -5.515625 C 27.710938 -6.585938 28.796875 -7.941406 29.359375 -9.578125 L 34.75 -8.046875 C 32.539062 -2.222656 27.53125 0.6875 19.71875 0.6875 C 14.257812 0.6875 10.101562 -0.9375 7.25 -4.1875 C 4.394531 -7.445312 2.96875 -12.28125 2.96875 -18.6875 C 2.96875 -24.78125 4.394531 -29.453125 7.25 -32.703125 C 10.101562 -35.953125 14.175781 -37.578125 19.46875 -37.578125 C 30.3125 -37.578125 35.734375 -31.039062 35.734375 -17.96875 L 35.734375 -17.15625 Z M 29.390625 -21.859375 C 29.054688 -25.742188 28.066406 -28.578125 26.421875 -30.359375 C 24.785156 -32.148438 22.4375 -33.046875 19.375 -33.046875 C 16.394531 -33.046875 14.035156 -32.050781 12.296875 -30.0625 C 10.554688 -28.070312 9.617188 -25.335938 9.484375 -21.859375 Z M 29.390625 -21.859375 "/></g></g><g style="fill:#cdc9c9;fill-opacity:1;"><g transform="translate(48.925761, 226.954335)"><path style="stroke:none" d="M 28.6875 -80.9375 C 36.238281 -80.9375 42.257812 -78.929688 46.75 -74.921875 C 51.25 -70.921875 53.5 -65.445312 53.5 -58.5 C 53.5 -54.1875 52.441406 -49.800781 50.328125 -45.34375 C 47.984375 -40.507812 45.640625 -36.617188 43.296875 -33.671875 C 40.960938 -30.722656 39.035156 -28.34375 37.515625 -26.53125 C 36.003906 -24.71875 34.265625 -22.769531 32.296875 -20.6875 C 30.335938 -18.613281 28.660156 -16.859375 27.265625 -15.421875 C 25.867188 -13.984375 24.242188 -12.335938 22.390625 -10.484375 C 20.535156 -8.628906 19.15625 -7.25 18.25 -6.34375 L 44.328125 -6.34375 C 47.578125 -6.34375 50.085938 -7.019531 51.859375 -8.375 C 53.640625 -9.738281 55.550781 -12.273438 57.59375 -15.984375 L 58.71875 -15.984375 L 53.28125 0 L 6.796875 0 L 6.796875 -1.140625 C 14.804688 -8.546875 22.78125 -17.3125 30.71875 -27.4375 C 34.875 -32.800781 38.289062 -38.222656 40.96875 -43.703125 C 43.65625 -49.179688 45 -53.960938 45 -58.046875 C 45 -64.160156 43.5625 -68.9375 40.6875 -72.375 C 37.820312 -75.8125 33.929688 -77.53125 29.015625 -77.53125 C 23.503906 -77.53125 19.179688 -76.054688 16.046875 -73.109375 C 12.910156 -70.171875 11.414062 -66.054688 11.5625 -60.765625 L 10.421875 -60.640625 L 8.390625 -73.5625 C 11.335938 -76.507812 15.609375 -78.664062 21.203125 -80.03125 C 23.765625 -80.632812 26.257812 -80.9375 28.6875 -80.9375 Z M 28.6875 -80.9375 "/></g></g><g style="fill:#cdc9c9;fill-opacity:1;"><g transform="translate(111.613601, 226.954335)"><path style="stroke:none" d="M 14.28125 -69.875 C 19.039062 -77.25 25.539062 -80.9375 33.78125 -80.9375 C 42.019531 -80.9375 48.519531 -77.25 53.28125 -69.875 C 58.039062 -62.507812 60.421875 -52.441406 60.421875 -39.671875 C 60.421875 -26.898438 58.039062 -16.828125 53.28125 -9.453125 C 48.519531 -2.085938 42.019531 1.59375 33.78125 1.59375 C 25.539062 1.59375 19.039062 -2.085938 14.28125 -9.453125 C 9.519531 -16.828125 7.140625 -26.898438 7.140625 -39.671875 C 7.140625 -52.441406 9.519531 -62.507812 14.28125 -69.875 Z M 47.5 -67.390625 C 44.175781 -74.148438 39.601562 -77.53125 33.78125 -77.53125 C 27.957031 -77.53125 23.382812 -74.148438 20.0625 -67.390625 C 16.738281 -60.628906 15.078125 -51.390625 15.078125 -39.671875 C 15.078125 -27.960938 16.738281 -18.722656 20.0625 -11.953125 C 23.382812 -5.191406 27.957031 -1.8125 33.78125 -1.8125 C 39.601562 -1.8125 44.175781 -5.191406 47.5 -11.953125 C 50.820312 -18.722656 52.484375 -27.960938 52.484375 -39.671875 C 52.484375 -51.390625 50.820312 -60.628906 47.5 -67.390625 Z M 47.5 -67.390625 "/></g></g><g style="fill:#cdc9c9;fill-opacity:1;"><g transform="translate(179.175902, 226.954335)"><path style="stroke:none" d="M 29.8125 -1.140625 L 32.1875 -1.140625 L 32.1875 0 L 7.59375 0 L 7.703125 -1.140625 L 10.09375 -1.140625 C 11.75 -1.140625 13.203125 -1.742188 14.453125 -2.953125 C 15.703125 -4.160156 16.328125 -5.59375 16.328125 -7.25 L 16.328125 -67 C 16.328125 -70.695312 14.585938 -72.546875 11.109375 -72.546875 L 6.796875 -72.546875 L 6.796875 -73.6875 C 10.347656 -74.132812 13.332031 -74.847656 15.75 -75.828125 C 18.175781 -76.816406 20.40625 -78.519531 22.4375 -80.9375 L 23.578125 -80.9375 L 23.578125 -7.25 C 23.578125 -5.507812 24.179688 -4.054688 25.390625 -2.890625 C 26.597656 -1.722656 28.070312 -1.140625 29.8125 -1.140625 Z M 29.8125 -1.140625 "/></g></g><g style="fill:#cdc9c9;fill-opacity:1;"><g transform="translate(218.171597, 226.954335)"><path style="stroke:none" d="M 13.609375 -73.109375 C 11.410156 -73.109375 9.671875 -72.5625 8.390625 -71.46875 C 7.109375 -70.375 6.007812 -68.65625 5.09375 -66.3125 L 3.96875 -66.3125 L 7.140625 -79.125 L 52.484375 -79.125 L 40.25 -46.484375 C 37.976562 -40.359375 35.195312 -32.4375 31.90625 -22.71875 C 28.625 -13.007812 26.335938 -5.4375 25.046875 0 C 25.046875 0 22.40625 0 17.125 0 C 25.65625 -21.457031 31.8125 -37.101562 35.59375 -46.9375 L 45.578125 -73.109375 Z M 13.609375 -73.109375 "/></g></g></g></svg>